<?xml version="1.0" standalone="no"?>
<!DOCTYPE svg PUBLIC "-//W3C//DTD SVG 20010904//EN"
 "http://www.w3.org/TR/2001/REC-SVG-20010904/DTD/svg10.dtd">
<svg version="1.0" xmlns="http://www.w3.org/2000/svg"
 width="1442.000000pt" height="1442.000000pt" viewBox="0 0 1442.000000 1442.000000"
 preserveAspectRatio="xMidYMid meet">
<metadata>
Created by potrace 1.14, written by Peter Selinger 2001-2017
</metadata>
<g transform="translate(0.000000,1442.000000) scale(0.100000,-0.100000)"
fill="#000000" stroke="none">
<path d="M3079 12276 c-2 -2 -22 -6 -44 -9 -107 -16 -186 -49 -375 -160 -145
-86 -182 -107 -232 -135 -163 -92 -374 -218 -376 -224 -2 -5 -8 -8 -13 -8 -5
0 -103 -55 -217 -121 -114 -67 -223 -131 -242 -141 -68 -39 -346 -202 -407
-240 -34 -21 -65 -38 -68 -38 -3 0 -22 -11 -43 -24 -20 -13 -140 -83 -267
-157 -351 -203 -426 -249 -475 -288 -197 -159 -307 -379 -314 -629 -9 -279
101 -520 315 -694 38 -30 274 -171 1009 -601 47 -27 99 -57 115 -67 17 -10 57
-33 90 -52 33 -19 91 -53 129 -76 37 -23 71 -42 76 -42 4 0 18 -8 31 -18 13
-11 49 -32 79 -49 30 -16 84 -48 120 -70 36 -22 72 -42 80 -45 13 -4 -59 -51
-200 -131 -182 -102 -336 -193 -338 -199 -2 -5 -7 -8 -12 -8 -5 0 -43 -20 -84
-45 -42 -25 -79 -45 -82 -45 -2 0 -33 -17 -67 -38 -34 -21 -111 -67 -172 -102
-60 -35 -170 -99 -243 -142 -73 -43 -135 -78 -137 -78 -3 0 -29 -16 -59 -35
-30 -19 -58 -35 -61 -35 -3 0 -24 -12 -48 -27 -23 -14 -44 -25 -46 -24 -2 2
-7 -1 -10 -6 -3 -5 -27 -20 -53 -33 -27 -14 -48 -28 -48 -32 0 -5 -5 -8 -11
-8 -24 0 -136 -102 -204 -185 -70 -86 -141 -244 -163 -365 -14 -76 -12 -250 5
-329 26 -125 74 -232 151 -333 82 -108 140 -158 287 -245 110 -66 478 -280
510 -298 11 -5 31 -18 45 -26 38 -24 293 -174 310 -182 8 -4 29 -15 45 -26 30
-18 660 -387 718 -420 18 -10 246 -143 507 -296 261 -153 489 -286 505 -295
17 -10 113 -66 215 -125 102 -60 199 -116 215 -125 17 -10 194 -113 395 -230
201 -117 385 -224 410 -237 25 -14 50 -29 55 -33 6 -4 30 -19 55 -32 25 -14
140 -80 255 -148 116 -67 230 -134 255 -147 25 -14 65 -38 90 -53 25 -15 122
-71 215 -125 94 -53 190 -110 215 -125 25 -15 65 -39 90 -52 25 -14 137 -79
250 -145 113 -66 224 -130 245 -142 22 -12 81 -46 130 -75 344 -202 664 -386
671 -386 3 0 20 -6 37 -14 94 -42 217 -64 339 -60 194 5 258 30 592 223 122
71 237 138 256 148 49 28 192 111 210 123 8 5 42 24 75 43 82 46 97 55 365
212 129 75 253 147 275 160 22 12 74 42 115 67 41 25 95 56 120 70 71 40 418
241 615 356 244 142 600 349 655 379 25 14 50 29 55 33 6 4 114 67 240 140
127 73 244 140 260 150 17 9 152 88 300 175 149 87 290 169 315 183 25 13 52
31 61 38 8 8 18 14 21 14 4 0 105 58 225 128 237 140 698 409 886 518 65 38
130 76 145 85 15 9 54 32 87 51 33 19 101 59 150 88 50 29 104 60 120 70 267
154 678 398 705 418 88 65 195 194 247 297 26 51 69 187 77 245 7 49 8 212 2
246 -2 12 -7 37 -10 56 -10 63 -54 179 -98 255 -81 142 -210 258 -414 371 -38
21 -199 114 -359 207 -159 93 -317 184 -350 203 -33 19 -73 43 -90 53 -16 10
-46 26 -65 37 -35 19 -552 320 -623 362 -21 13 -35 26 -30 30 4 5 220 132 478
283 1324 772 1232 717 1312 795 100 98 170 210 212 339 59 183 58 376 -5 561
-46 138 -156 286 -292 394 -12 9 -92 58 -179 109 -87 51 -225 131 -308 179
-82 48 -166 97 -185 108 -46 26 -431 249 -450 261 -20 13 -259 153 -285 167
-31 17 -81 46 -205 119 -63 37 -131 77 -150 87 -104 59 -303 176 -357 209 -34
22 -64 39 -67 39 -2 0 -61 34 -131 75 -229 136 -319 167 -502 172 -136 3 -223
-11 -331 -53 -73 -29 -88 -37 -297 -159 -77 -45 -243 -142 -370 -215 -126 -73
-266 -154 -310 -180 -44 -26 -183 -107 -310 -180 -126 -73 -277 -161 -335
-195 -58 -34 -125 -73 -150 -87 -25 -14 -112 -64 -195 -113 -82 -48 -166 -97
-185 -108 -19 -10 -89 -51 -155 -89 -66 -39 -151 -88 -190 -111 -38 -22 -103
-60 -143 -84 -40 -24 -75 -43 -77 -43 -2 0 -59 -33 -127 -73 -203 -121 -449
-263 -515 -296 -98 -50 -229 -79 -354 -79 -197 0 -293 31 -534 174 -55 32
-108 63 -117 69 -9 5 -41 23 -70 39 -29 16 -65 37 -80 47 -14 11 -29 19 -32
19 -4 0 -23 11 -44 23 -33 21 -570 334 -649 378 -17 10 -49 29 -70 42 -21 13
-45 27 -53 30 -8 4 -28 16 -45 26 -16 10 -59 35 -95 56 -36 21 -80 46 -97 56
-18 11 -48 27 -65 38 -18 10 -71 41 -118 68 -47 28 -101 60 -120 71 -162 92
-791 458 -812 473 -15 10 -29 19 -32 19 -2 0 -40 21 -83 46 -43 26 -92 55
-108 64 -17 9 -87 50 -155 90 -69 40 -141 82 -160 93 -19 10 -53 30 -75 43
-41 24 -164 73 -200 80 -11 2 -31 7 -45 10 -28 7 -265 16 -271 10z"/>
</g>
</svg>
