<?xml version="1.0" encoding="UTF-8"?>
<!DOCTYPE svg PUBLIC "-//W3C//DTD SVG 1.1//EN" "http://www.w3.org/Graphics/SVG/1.1/DTD/svg11.dtd">
<svg
      width="100%" height="100%"
      viewBox="0 0 20 19"
      fill="none"
      xmlns="http://www.w3.org/2000/svg" >
      <path
        opacity="0.99"
        d="M0 3.55085L5 0.5V6.51695L0 3.55085Z"
        fill="#F66D1A"
      />
      <path
        opacity="0.99"
        d="M10 3.55085L5 0.5V6.51695L10 3.55085Z"
        fill="#F6921A"
      />
      <path
        opacity="0.99"
        d="M10 3.55078V9.39824L5 6.51688L10 3.55078Z"
        fill="#F66D1A"
      />
      <path
        opacity="0.99"
        d="M10 3.55078V9.39824L15 6.51688L10 3.55078Z"
        fill="#F6921A"
      />
      <path
        opacity="0.99"
        d="M10 3.55106L15 0.584961V6.51716L10 3.55106Z"
        fill="#F66D1A"
      />
      <path
        opacity="0.99"
        d="M20 3.55106L15 0.584961V6.51716L20 3.55106Z"
        fill="#F6921A"
      />
      <path
        opacity="0.99"
        d="M0 12.1949L5 9.14404V15.161L0 12.1949Z"
        fill="#F66D1A"
      />
      <path
        opacity="0.99"
        d="M10 12.1949L5 9.14404V15.161L10 12.1949Z"
        fill="#F6921A"
      />
      <path
        opacity="0.99"
        d="M10 12.1948V18.0423L5 15.1609L10 12.1948Z"
        fill="#F66D1A"
      />
      <path
        opacity="0.99"
        d="M10 12.1948V18.0423L15 15.1609L10 12.1948Z"
        fill="#F6921A"
      />
      <path
        opacity="0.99"
        d="M10 12.1951L15 9.229V15.1612L10 12.1951Z"
        fill="#F66D1A"
      />
      <path
        opacity="0.99"
        d="M20 12.1951L15 9.229V15.1612L20 12.1951Z"
        fill="#F6921A"
      />
    </svg>