<svg width="100" height="66" viewBox="0 0 100 66" fill="none" xmlns="http://www.w3.org/2000/svg">
<g clip-path="url(#clip0_1778_19599)">
<path d="M9.99759 45.1016H11.3439C11.5184 45.1051 11.6845 45.1776 11.8066 45.3035C11.9288 45.4293 11.9971 45.5985 11.9971 45.7748C11.9971 46.1463 11.7105 46.4479 11.3439 46.4479H9.99759V47.8077C9.9941 47.9839 9.92235 48.1517 9.79773 48.275C9.67311 48.3984 9.50557 48.4674 9.33109 48.4674C9.24429 48.4688 9.15808 48.4528 9.07745 48.4203C8.99682 48.3879 8.92337 48.3395 8.86137 48.2782C8.79938 48.2168 8.75006 48.1436 8.71627 48.0629C8.68249 47.9821 8.66492 47.8954 8.66458 47.8077V46.4479H7.31824C7.14379 46.4444 6.97767 46.3719 6.85554 46.2461C6.73342 46.1202 6.66503 45.951 6.66506 45.7748C6.66506 45.4032 6.95166 45.1016 7.31824 45.1016H8.66458V43.7418C8.66807 43.5656 8.73983 43.3979 8.86445 43.2745C8.98907 43.1512 9.1566 43.0821 9.33109 43.0821C9.699 43.0821 9.99759 43.3716 9.99759 43.7418V45.1016ZM97.9764 39.7163V38.3566C97.9761 38.2689 97.9585 38.1822 97.9247 38.1014C97.8909 38.0206 97.8416 37.9474 97.7796 37.8861C97.7176 37.8247 97.6442 37.7764 97.5635 37.7439C97.4829 37.7114 97.3967 37.6954 97.3099 37.6969C97.1354 37.6968 96.9679 37.7659 96.8433 37.8892C96.7187 38.0126 96.6469 38.1804 96.6434 38.3566V39.7163H95.2971C95.2103 39.7167 95.1244 39.7344 95.0444 39.7685C94.9644 39.8027 94.892 39.8525 94.8312 39.9151C94.7705 39.9777 94.7226 40.0519 94.6905 40.1333C94.6583 40.2148 94.6425 40.3018 94.6439 40.3895C94.6439 40.7503 94.9371 41.0627 95.2971 41.0627H96.6434V42.4224C96.6434 42.7927 96.942 43.0821 97.3099 43.0821C97.4844 43.0822 97.6519 43.0131 97.7766 42.8897C97.9012 42.7664 97.9729 42.5986 97.9764 42.4224V41.0627H99.3228C99.6893 41.0627 99.9759 40.7611 99.9759 40.3895C99.976 40.2133 99.9076 40.0441 99.7855 39.9182C99.6633 39.7923 99.4972 39.7199 99.3228 39.7163H97.9764ZM49.5507 61.9306H15.9922C15.8172 61.9307 15.644 61.896 15.4824 61.8284C15.3208 61.7607 15.1741 61.6615 15.0506 61.5364C14.9271 61.4113 14.8293 61.2628 14.7628 61.0994C14.6963 60.936 14.6624 60.7609 14.6631 60.5842C14.6631 59.8411 15.267 59.2379 15.9922 59.2379H22.0374C21.5708 58.4214 21.3262 57.4948 21.3282 56.552V17.4954C21.3285 16.7881 21.4669 16.0879 21.7354 15.4347C22.0039 14.7815 22.3973 14.1882 22.893 13.6887C23.3887 13.1892 23.977 12.7932 24.6244 12.5235C25.2717 12.2538 25.9653 12.1156 26.6656 12.1168H30.6593V10.7638C30.6596 10.0566 30.798 9.35633 31.0665 8.70314C31.335 8.04996 31.7284 7.45663 32.2241 6.9571C32.7198 6.45757 33.3081 6.06163 33.9555 5.79192C34.6028 5.52221 35.2964 5.38403 35.9967 5.38527H67.9783C68.6786 5.38367 69.3724 5.52162 70.0199 5.7912C70.6674 6.06078 71.2559 6.45671 71.7517 6.95631C72.2475 7.45591 72.6408 8.04938 72.9092 8.70272C73.1775 9.35607 73.3157 10.0565 73.3157 10.7638V49.8204C73.3157 50.7992 73.0571 51.7161 72.6052 52.5063H79.9794C80.7166 52.5063 81.3138 53.1041 81.3138 53.8527C81.3138 54.5958 80.7206 55.199 79.9807 55.199H63.9846V56.552C63.9846 57.5308 63.726 58.4476 63.2741 59.2379H63.9886C64.7217 59.2379 65.3176 59.8357 65.3176 60.5842C65.3176 61.3274 64.7138 61.9306 63.9886 61.9306H56.9756C57.5848 62.9618 57.4528 64.3135 56.5664 65.2088C56.3193 65.4596 56.0256 65.6586 55.7021 65.7943C55.3786 65.9301 55.0318 66 54.6815 66C54.3312 66 53.9844 65.9301 53.6609 65.7943C53.3374 65.6586 53.0437 65.4596 52.7966 65.2088L49.5507 61.9306ZM54.4242 59.2379H58.6632C60.1295 59.2379 61.3186 58.0397 61.3186 56.5386V17.4321C61.3186 15.9781 60.1668 14.8095 58.7459 14.8095H26.5669C25.1459 14.8095 23.9942 15.9835 23.9942 17.4321V56.5386C23.9942 58.0289 25.1939 59.2379 26.6483 59.2379H46.8834L46.1982 58.5446C45.866 58.2108 45.627 57.7944 45.5053 57.3375C45.3836 56.8805 45.3835 56.3992 45.505 55.9421L44.2467 54.6699C42.3566 56.0909 40.0043 56.7373 37.6619 56.4795C35.3195 56.2216 33.1604 55.0785 31.6178 53.2796C30.0752 51.4806 29.2634 49.159 29.3452 46.7807C29.427 44.4023 30.3965 42.1432 32.0589 40.4568C33.7261 38.767 35.9658 37.7786 38.3262 37.691C40.6866 37.6034 42.9921 38.4232 44.7775 39.9849C46.563 41.5467 47.6956 43.7342 47.9469 46.1062C48.1982 48.4783 47.5495 50.8583 46.1316 52.7662L47.3913 54.0384C47.8436 53.9151 48.3202 53.9147 48.7728 54.0374C49.2253 54.1602 49.6376 54.4016 49.968 54.7372L54.4242 59.2379ZM63.9846 52.5063H67.9956C68.7005 52.5028 69.3753 52.2176 69.8727 51.713C70.37 51.2085 70.6493 50.5256 70.6497 49.8137V10.7705C70.6497 9.27881 69.4606 8.0779 67.9956 8.0779H35.978C35.2734 8.08181 34.5989 8.36718 34.1018 8.87169C33.6048 9.37619 33.3257 10.0588 33.3253 10.7705V12.1168H58.6472C59.3476 12.1153 60.0413 12.2532 60.6888 12.5228C61.3363 12.7924 61.9248 13.1883 62.4206 13.6879C62.9164 14.1875 63.3097 14.781 63.5781 15.4343C63.8465 16.0876 63.9846 16.788 63.9846 17.4954V52.5063ZM16.9959 3.02921H18.9821C19.542 3.02921 19.9952 3.47754 19.9952 4.03895C19.9952 4.59632 19.542 5.04869 18.9821 5.04869H16.9959V7.0547C16.9959 7.62015 16.552 8.0779 15.9961 8.0779C15.864 8.07702 15.7333 8.04985 15.6115 7.99795C15.4897 7.94606 15.3793 7.87044 15.2864 7.77543C15.1936 7.68041 15.1202 7.56786 15.0704 7.4442C15.0207 7.32054 14.9955 7.18818 14.9964 7.0547V5.04869H13.0102C12.8779 5.04993 12.7467 5.02476 12.6241 4.97462C12.5015 4.92448 12.39 4.85037 12.2958 4.75653C12.2017 4.6627 12.1268 4.551 12.0756 4.42785C12.0243 4.3047 11.9976 4.17254 11.9971 4.03895C11.9971 3.48157 12.4503 3.02921 13.0102 3.02921H14.9964V1.0232C14.9964 0.457748 15.4403 0 15.9961 0C16.548 0 16.9959 0.457748 16.9959 1.0232V3.02921ZM1.33301 60.5842C1.33301 59.8411 1.93687 59.2379 2.66203 59.2379H10.6681C11.4013 59.2379 11.9971 59.8357 11.9971 60.5842C11.9971 61.3274 11.3933 61.9306 10.6681 61.9306H2.66203C2.48711 61.9307 2.31388 61.896 2.1523 61.8284C1.99072 61.7607 1.84396 61.6615 1.72046 61.5364C1.59696 61.4113 1.49916 61.2628 1.43267 61.0994C1.36618 60.936 1.33231 60.7609 1.33301 60.5842ZM43.3709 51.8816C43.9899 51.2565 44.4809 50.5143 44.8159 49.6975C45.1509 48.8807 45.3233 48.0052 45.3233 47.1211C45.3233 46.237 45.1509 45.3615 44.8159 44.5447C44.4809 43.7278 43.9899 42.9857 43.3709 42.3605C42.7519 41.7353 42.0171 41.2394 41.2083 40.9011C40.3996 40.5627 39.5327 40.3886 38.6574 40.3886C37.782 40.3886 36.9152 40.5627 36.1064 40.9011C35.2977 41.2394 34.5628 41.7353 33.9438 42.3605C32.6937 43.6231 31.9914 45.3355 31.9914 47.1211C31.9914 48.9066 32.6937 50.6191 33.9438 51.8816C35.1939 53.1442 36.8894 53.8535 38.6574 53.8535C40.4253 53.8535 42.1208 53.1442 43.3709 51.8816ZM29.3263 20.1947C29.3263 19.8379 29.4665 19.4957 29.7162 19.2432C29.9659 18.9908 30.3046 18.8488 30.658 18.8484H45.3224C45.676 18.8484 46.015 18.9903 46.265 19.2428C46.515 19.4952 46.6554 19.8377 46.6554 20.1947C46.6554 20.5518 46.515 20.8943 46.265 21.1467C46.015 21.3992 45.676 21.5411 45.3224 21.5411H30.6593C30.4841 21.5416 30.3105 21.5071 30.1485 21.4397C29.9866 21.3722 29.8394 21.273 29.7155 21.1479C29.5916 21.0228 29.4935 20.8742 29.4267 20.7106C29.3599 20.547 29.3257 20.3717 29.3263 20.1947ZM29.3263 26.9263C29.3263 26.1832 29.9195 25.58 30.65 25.58H51.9968C52.7273 25.58 53.3205 26.1778 53.3205 26.9263C53.3205 27.6695 52.7273 28.2726 51.9968 28.2726H30.65C30.4754 28.2725 30.3026 28.2375 30.1414 28.1696C29.9803 28.1018 29.8341 28.0025 29.7111 27.8774C29.5881 27.7522 29.4907 27.6038 29.4247 27.4406C29.3587 27.2774 29.3252 27.1026 29.3263 26.9263ZM29.3263 33.6579C29.3263 32.9147 29.9208 32.3116 30.6566 32.3116H39.993C40.7275 32.3116 41.3234 32.9094 41.3234 33.6579C41.3234 34.4011 40.7289 35.0042 39.993 35.0042H30.6566C30.4816 35.0046 30.3082 34.97 30.1465 34.9024C29.9847 34.8349 29.8378 34.7357 29.7142 34.6105C29.5906 34.4854 29.4926 34.3368 29.4261 34.1733C29.3595 34.0098 29.3256 33.8347 29.3263 33.6579ZM3.99904 25.58C3.47388 25.58 2.95386 25.4755 2.46867 25.2726C1.98349 25.0696 1.54264 24.7721 1.17129 24.397C0.799946 24.022 0.505379 23.5767 0.304409 23.0867C0.103438 22.5967 0 22.0715 0 21.5411C0 21.0107 0.103438 20.4855 0.304409 19.9954C0.505379 19.5054 0.799946 19.0601 1.17129 18.6851C1.54264 18.31 1.98349 18.0125 2.46867 17.8096C2.95386 17.6066 3.47388 17.5021 3.99904 17.5021C5.05965 17.5021 6.07682 17.9276 6.82678 18.6851C7.57675 19.4425 7.99807 20.4699 7.99807 21.5411C7.99807 22.6123 7.57675 23.6396 6.82678 24.397C6.07682 25.1545 5.05965 25.58 3.99904 25.58ZM3.99904 23.5605C4.26165 23.5606 4.5217 23.5084 4.76433 23.4069C5.00696 23.3055 5.22743 23.1567 5.41314 22.9692C5.59885 22.7816 5.74617 22.559 5.84667 22.314C5.94718 22.0689 5.99891 21.8063 5.99891 21.5411C5.99891 21.2758 5.94718 21.0132 5.84667 20.7682C5.74617 20.5231 5.59885 20.3005 5.41314 20.113C5.22743 19.9254 5.00696 19.7767 4.76433 19.6752C4.5217 19.5737 4.26165 19.5215 3.99904 19.5216C3.46879 19.5217 2.9603 19.7345 2.5854 20.1132C2.21049 20.4919 1.99988 21.0055 1.99988 21.5411C1.99988 22.0766 2.21049 22.5902 2.5854 22.9689C2.9603 23.3476 3.46879 23.5604 3.99904 23.5605ZM86.6458 17.5021C85.5852 17.5021 84.568 17.0766 83.8181 16.3191C83.0681 15.5617 82.6468 14.5344 82.6468 13.4632C82.6468 12.392 83.0681 11.3646 83.8181 10.6072C84.568 9.84975 85.5852 9.42422 86.6458 9.42422C87.7064 9.42422 88.7236 9.84975 89.4736 10.6072C90.2235 11.3646 90.6448 12.392 90.6448 13.4632C90.6448 14.5344 90.2235 15.5617 89.4736 16.3191C88.7236 17.0766 87.7064 17.5021 86.6458 17.5021ZM86.6458 15.4826C86.9084 15.4827 87.1685 15.4305 87.4111 15.329C87.6537 15.2276 87.8742 15.0788 88.0599 14.8913C88.2456 14.7037 88.3929 14.4811 88.4934 14.2361C88.594 13.991 88.6457 13.7284 88.6457 13.4632C88.6457 13.1979 88.594 12.9353 88.4934 12.6903C88.3929 12.4452 88.2456 12.2226 88.0599 12.0351C87.8742 11.8475 87.6537 11.6988 87.4111 11.5973C87.1685 11.4958 86.9084 11.4436 86.6458 11.4437C86.1156 11.4438 85.6071 11.6566 85.2322 12.0353C84.8573 12.414 84.6466 12.9276 84.6466 13.4632C84.6466 13.9987 84.8573 14.5123 85.2322 14.891C85.6071 15.2697 86.1156 15.4825 86.6458 15.4826Z" fill="#BEC2DA" fill-opacity="0.87"/>
</g>
<defs>
<clipPath id="clip0_1778_19599">
<rect width="100" height="66" fill="white"/>
</clipPath>
</defs>
</svg>
